<mxfile host="app.diagrams.net" modified="2021-09-13T03:28:41.338Z" agent="5.0 (Windows NT 10.0; Win64; x64) AppleWebKit/537.36 (KHTML, like Gecko) Chrome/93.0.4577.63 Safari/537.36" etag="oELA4a6DwLS6g870Z_Ex" version="15.1.1" type="github">
  <diagram id="aQnRRkF6ognPnJ4j7R5l" name="第 1 页">
    <mxGraphModel dx="1422" dy="762" grid="1" gridSize="10" guides="1" tooltips="1" connect="1" arrows="1" fold="1" page="1" pageScale="1" pageWidth="827" pageHeight="1169" math="0" shadow="0">
      <root>
        <mxCell id="0" />
        <mxCell id="1" parent="0" />
        <mxCell id="pk9T2rpyoznw9BTv7xYc-8" value="all" style="rounded=0;whiteSpace=wrap;html=1;verticalAlign=bottom;align=right;" parent="1" vertex="1">
          <mxGeometry x="210" y="290" width="340" height="230" as="geometry" />
        </mxCell>
        <mxCell id="pk9T2rpyoznw9BTv7xYc-9" value="active" style="ellipse;whiteSpace=wrap;html=1;verticalAlign=bottom;" parent="1" vertex="1">
          <mxGeometry x="240" y="320" width="250" height="190" as="geometry" />
        </mxCell>
        <mxCell id="pk9T2rpyoznw9BTv7xYc-10" value="queued" style="ellipse;whiteSpace=wrap;html=1;verticalAlign=bottom;" parent="1" vertex="1">
          <mxGeometry x="270" y="350" width="160" height="130" as="geometry" />
        </mxCell>
        <mxCell id="pk9T2rpyoznw9BTv7xYc-11" value="running" style="ellipse;whiteSpace=wrap;html=1;verticalAlign=bottom;" parent="1" vertex="1">
          <mxGeometry x="294" y="375" width="86" height="55" as="geometry" />
        </mxCell>
        <mxCell id="pk9T2rpyoznw9BTv7xYc-12" value="有flowruner" style="rounded=0;whiteSpace=wrap;html=1;align=right;verticalAlign=bottom;" parent="1" vertex="1">
          <mxGeometry x="150" y="620" width="80" height="60" as="geometry" />
        </mxCell>
        <mxCell id="pk9T2rpyoznw9BTv7xYc-13" value="冇flowrunner" style="rounded=0;whiteSpace=wrap;html=1;align=right;verticalAlign=bottom;" parent="1" vertex="1">
          <mxGeometry x="230" y="620" width="90" height="60" as="geometry" />
        </mxCell>
        <mxCell id="e2mZM0DdO9kEQqsVOAgc-1" value="FlowA-exec1" style="rounded=0;whiteSpace=wrap;html=1;" vertex="1" parent="1">
          <mxGeometry x="740" y="190" width="140" height="40" as="geometry" />
        </mxCell>
        <mxCell id="e2mZM0DdO9kEQqsVOAgc-6" value="&lt;span&gt;FlowA-exec2&lt;/span&gt;" style="rounded=0;whiteSpace=wrap;html=1;" vertex="1" parent="1">
          <mxGeometry x="740" y="230" width="140" height="40" as="geometry" />
        </mxCell>
        <mxCell id="e2mZM0DdO9kEQqsVOAgc-7" value="&lt;span&gt;FlowA-exec3&lt;/span&gt;" style="rounded=0;whiteSpace=wrap;html=1;" vertex="1" parent="1">
          <mxGeometry x="740" y="270" width="140" height="40" as="geometry" />
        </mxCell>
        <mxCell id="e2mZM0DdO9kEQqsVOAgc-8" value="&lt;span&gt;FlowA-exec4&lt;/span&gt;" style="rounded=0;whiteSpace=wrap;html=1;" vertex="1" parent="1">
          <mxGeometry x="740" y="310" width="140" height="40" as="geometry" />
        </mxCell>
        <mxCell id="e2mZM0DdO9kEQqsVOAgc-9" value="&lt;span&gt;FlowA-exec5&lt;/span&gt;" style="rounded=0;whiteSpace=wrap;html=1;" vertex="1" parent="1">
          <mxGeometry x="740" y="350" width="140" height="40" as="geometry" />
        </mxCell>
        <mxCell id="e2mZM0DdO9kEQqsVOAgc-10" value="&lt;span&gt;FlowA-exec6&lt;/span&gt;" style="rounded=0;whiteSpace=wrap;html=1;fillColor=#f5f5f5;strokeColor=#666666;fontColor=#333333;" vertex="1" parent="1">
          <mxGeometry x="740" y="390" width="140" height="40" as="geometry" />
        </mxCell>
        <mxCell id="e2mZM0DdO9kEQqsVOAgc-11" value="&lt;span&gt;FlowA-exec7&lt;/span&gt;" style="rounded=0;whiteSpace=wrap;html=1;fillColor=#f5f5f5;strokeColor=#666666;fontColor=#333333;" vertex="1" parent="1">
          <mxGeometry x="740" y="430" width="140" height="40" as="geometry" />
        </mxCell>
        <mxCell id="e2mZM0DdO9kEQqsVOAgc-12" value="&lt;span&gt;FlowA-exec8&lt;/span&gt;" style="rounded=0;whiteSpace=wrap;html=1;" vertex="1" parent="1">
          <mxGeometry x="740" y="470" width="140" height="40" as="geometry" />
        </mxCell>
        <mxCell id="e2mZM0DdO9kEQqsVOAgc-13" value="FlowB-exec1" style="rounded=0;whiteSpace=wrap;html=1;" vertex="1" parent="1">
          <mxGeometry x="1000" y="190" width="140" height="40" as="geometry" />
        </mxCell>
        <mxCell id="e2mZM0DdO9kEQqsVOAgc-21" style="rounded=0;orthogonalLoop=1;jettySize=auto;html=1;exitX=0;exitY=0.5;exitDx=0;exitDy=0;entryX=1;entryY=0.75;entryDx=0;entryDy=0;" edge="1" parent="1" source="e2mZM0DdO9kEQqsVOAgc-14" target="e2mZM0DdO9kEQqsVOAgc-1">
          <mxGeometry relative="1" as="geometry" />
        </mxCell>
        <mxCell id="e2mZM0DdO9kEQqsVOAgc-14" value="&lt;span&gt;FlowB-exec2&lt;/span&gt;" style="rounded=0;whiteSpace=wrap;html=1;" vertex="1" parent="1">
          <mxGeometry x="1000" y="230" width="140" height="40" as="geometry" />
        </mxCell>
        <mxCell id="e2mZM0DdO9kEQqsVOAgc-22" style="edgeStyle=none;rounded=0;orthogonalLoop=1;jettySize=auto;html=1;exitX=0;exitY=0.5;exitDx=0;exitDy=0;entryX=1;entryY=0.5;entryDx=0;entryDy=0;" edge="1" parent="1" source="e2mZM0DdO9kEQqsVOAgc-15" target="e2mZM0DdO9kEQqsVOAgc-6">
          <mxGeometry relative="1" as="geometry" />
        </mxCell>
        <mxCell id="e2mZM0DdO9kEQqsVOAgc-15" value="&lt;span&gt;FlowB-exec3&lt;/span&gt;" style="rounded=0;whiteSpace=wrap;html=1;" vertex="1" parent="1">
          <mxGeometry x="1000" y="270" width="140" height="40" as="geometry" />
        </mxCell>
        <mxCell id="e2mZM0DdO9kEQqsVOAgc-23" style="edgeStyle=none;rounded=0;orthogonalLoop=1;jettySize=auto;html=1;exitX=0;exitY=0.5;exitDx=0;exitDy=0;entryX=1;entryY=0.5;entryDx=0;entryDy=0;" edge="1" parent="1" source="e2mZM0DdO9kEQqsVOAgc-16" target="e2mZM0DdO9kEQqsVOAgc-7">
          <mxGeometry relative="1" as="geometry" />
        </mxCell>
        <mxCell id="e2mZM0DdO9kEQqsVOAgc-16" value="&lt;span&gt;FlowB-exec4&lt;/span&gt;" style="rounded=0;whiteSpace=wrap;html=1;" vertex="1" parent="1">
          <mxGeometry x="1000" y="310" width="140" height="40" as="geometry" />
        </mxCell>
        <mxCell id="e2mZM0DdO9kEQqsVOAgc-24" style="edgeStyle=none;rounded=0;orthogonalLoop=1;jettySize=auto;html=1;exitX=0;exitY=0.5;exitDx=0;exitDy=0;entryX=1;entryY=0.5;entryDx=0;entryDy=0;" edge="1" parent="1" source="e2mZM0DdO9kEQqsVOAgc-17" target="e2mZM0DdO9kEQqsVOAgc-8">
          <mxGeometry relative="1" as="geometry" />
        </mxCell>
        <mxCell id="e2mZM0DdO9kEQqsVOAgc-17" value="&lt;span&gt;FlowB-exec5&lt;/span&gt;" style="rounded=0;whiteSpace=wrap;html=1;" vertex="1" parent="1">
          <mxGeometry x="1000" y="350" width="140" height="40" as="geometry" />
        </mxCell>
        <mxCell id="e2mZM0DdO9kEQqsVOAgc-25" style="edgeStyle=none;rounded=0;orthogonalLoop=1;jettySize=auto;html=1;exitX=0;exitY=0.5;exitDx=0;exitDy=0;entryX=1;entryY=0.5;entryDx=0;entryDy=0;dashed=1;" edge="1" parent="1" source="e2mZM0DdO9kEQqsVOAgc-18" target="e2mZM0DdO9kEQqsVOAgc-9">
          <mxGeometry relative="1" as="geometry" />
        </mxCell>
        <mxCell id="e2mZM0DdO9kEQqsVOAgc-18" value="&lt;span&gt;FlowB-exec6&lt;/span&gt;" style="rounded=0;whiteSpace=wrap;html=1;fillColor=#f5f5f5;strokeColor=#666666;fontColor=#333333;shadow=0;" vertex="1" parent="1">
          <mxGeometry x="1000" y="390" width="140" height="40" as="geometry" />
        </mxCell>
        <mxCell id="e2mZM0DdO9kEQqsVOAgc-19" value="&lt;span&gt;FlowB-exec7&lt;/span&gt;" style="rounded=0;whiteSpace=wrap;html=1;fillColor=#f5f5f5;strokeColor=#666666;fontColor=#333333;" vertex="1" parent="1">
          <mxGeometry x="1000" y="430" width="140" height="40" as="geometry" />
        </mxCell>
        <mxCell id="e2mZM0DdO9kEQqsVOAgc-26" style="edgeStyle=none;rounded=0;orthogonalLoop=1;jettySize=auto;html=1;exitX=0;exitY=0.5;exitDx=0;exitDy=0;entryX=1;entryY=0.5;entryDx=0;entryDy=0;dashed=1;" edge="1" parent="1" source="e2mZM0DdO9kEQqsVOAgc-20" target="e2mZM0DdO9kEQqsVOAgc-11">
          <mxGeometry relative="1" as="geometry" />
        </mxCell>
        <mxCell id="e2mZM0DdO9kEQqsVOAgc-27" style="edgeStyle=none;rounded=0;orthogonalLoop=1;jettySize=auto;html=1;exitX=0;exitY=0.5;exitDx=0;exitDy=0;entryX=1;entryY=0.5;entryDx=0;entryDy=0;" edge="1" parent="1" source="e2mZM0DdO9kEQqsVOAgc-20" target="e2mZM0DdO9kEQqsVOAgc-9">
          <mxGeometry relative="1" as="geometry" />
        </mxCell>
        <mxCell id="e2mZM0DdO9kEQqsVOAgc-20" value="&lt;span&gt;FlowB-exec8&lt;/span&gt;" style="rounded=0;whiteSpace=wrap;html=1;" vertex="1" parent="1">
          <mxGeometry x="1000" y="470" width="140" height="40" as="geometry" />
        </mxCell>
      </root>
    </mxGraphModel>
  </diagram>
</mxfile>
